<svg width="33" height="32" viewBox="0 0 33 32" fill="none" xmlns="http://www.w3.org/2000/svg">
<path fill-rule="evenodd" clip-rule="evenodd" d="M16.3 0C7.3 0 0 7.3 0 16.3C0 23.5 4.7 29.6 11.1 31.8C11.9 31.9 12.2 31.4 12.2 31C12.2 30.6 12.2 29.6 12.2 28.2C7.7 29.2 6.7 26 6.7 26C6 24.1 4.9 23.6 4.9 23.6C3.4 22.6 5 22.6 5 22.6C6.6 22.7 7.5 24.3 7.5 24.3C9 26.8 11.3 26.1 12.2 25.7C12.3 24.6 12.8 23.9 13.2 23.5C9.6 23.1 5.8 21.7 5.8 15.4C5.8 13.6 6.4 12.2 7.5 11C7.4 10.7 6.8 9 7.7 6.8C7.7 6.8 9.1 6.4 12.2 8.5C13.5 8.1 14.9 8 16.3 8C17.7 8 19.1 8.2 20.4 8.5C23.5 6.4 24.9 6.8 24.9 6.8C25.8 9 25.2 10.7 25.1 11.1C26.1 12.2 26.8 13.7 26.8 15.5C26.8 21.8 23 23.1 19.4 23.5C20 24 20.5 25 20.5 26.5C20.5 28.7 20.5 30.4 20.5 31C20.5 31.4 20.8 31.9 21.6 31.8C28.1 29.6 32.7 23.5 32.7 16.3C32.6 7.3 25.3 0 16.3 0Z" fill="white"/>
</svg>
